<?xml version="1.0" encoding="UTF-8" standalone="no"?>
<svg
   height="22"
   viewBox="0 0 22 22"
   width="22"
   version="1.1"
   id="svg12"
   sodipodi:docname="Google__G__logo.svg"
   inkscape:version="1.2.2 (732a01da63, 2022-12-09)"
   xmlns:inkscape="http://www.inkscape.org/namespaces/inkscape"
   xmlns:sodipodi="http://sodipodi.sourceforge.net/DTD/sodipodi-0.dtd"
   xmlns="http://www.w3.org/2000/svg"
   xmlns:svg="http://www.w3.org/2000/svg">
  <defs
     id="defs16" />
  <sodipodi:namedview
     id="namedview14"
     pagecolor="#ffffff"
     bordercolor="#000000"
     borderopacity="0.25"
     inkscape:showpageshadow="2"
     inkscape:pageopacity="0.0"
     inkscape:pagecheckerboard="0"
     inkscape:deskcolor="#d1d1d1"
     showgrid="false"
     inkscape:zoom="9.8333333"
     inkscape:cx="10.983051"
     inkscape:cy="11.033898"
     inkscape:window-width="2160"
     inkscape:window-height="1256"
     inkscape:window-x="-11"
     inkscape:window-y="-11"
     inkscape:window-maximized="1"
     inkscape:current-layer="svg12" />
  <path
     d="M 21.56,11.25 C 21.56,10.47 21.49,9.72 21.36,9 H 11 v 4.26 h 5.92 c -0.26,1.37 -1.04,2.53 -2.21,3.31 v 2.77 h 3.57 c 2.08,-1.92 3.28,-4.74 3.28,-8.09 z"
     fill="#4285f4"
     id="path2" />
  <path
     d="m 11,22 c 2.97,0 5.46,-0.98 7.28,-2.66 L 14.71,16.57 C 13.73,17.23 12.48,17.63 11,17.63 8.14,17.63 5.71,15.7 4.84,13.1 H 1.18 v 2.84 C 2.99,19.53 6.7,22 11,22 Z"
     fill="#34a853"
     id="path4" />
  <path
     d="M 4.84,13.09 C 4.62,12.43 4.49,11.73 4.49,11 4.49,10.27 4.62,9.57 4.84,8.91 V 6.07 H 1.18 C 0.43,7.55 0,9.22 0,11 c 0,1.78 0.43,3.45 1.18,4.93 l 2.85,-2.22 z"
     fill="#fbbc05"
     id="path6" />
  <path
     d="m 11,4.38 c 1.62,0 3.06,0.56 4.21,1.64 L 18.36,2.87 C 16.45,1.09 13.97,0 11,0 6.7,0 2.99,2.47 1.18,6.07 L 4.84,8.91 C 5.71,6.31 8.14,4.38 11,4.38 Z"
     fill="#ea4335"
     id="path8" />
  <path
     d="M 0,0 H 22 V 22 H 0 Z"
     fill="none"
     id="path10" />
</svg>
