<?xml version="1.0" encoding="UTF-8" standalone="no"?>
<svg
   class="Gdd5U"
   focusable="false"
   viewBox="0 0 144 144"
   width="144"
   height="144"
   version="1.1"
   id="svg16"
   sodipodi:docname="Google_Lens_Icon.svg"
   inkscape:version="1.2.2 (732a01da63, 2022-12-09)"
   xmlns:inkscape="http://www.inkscape.org/namespaces/inkscape"
   xmlns:sodipodi="http://sodipodi.sourceforge.net/DTD/sodipodi-0.dtd"
   xmlns="http://www.w3.org/2000/svg"
   xmlns:svg="http://www.w3.org/2000/svg">
  <defs
     id="defs20" />
  <sodipodi:namedview
     id="namedview18"
     pagecolor="#ffffff"
     bordercolor="#000000"
     borderopacity="0.25"
     inkscape:showpageshadow="2"
     inkscape:pageopacity="0.0"
     inkscape:pagecheckerboard="0"
     inkscape:deskcolor="#d1d1d1"
     showgrid="false"
     inkscape:zoom="1.2291667"
     inkscape:cx="71.59322"
     inkscape:cy="72"
     inkscape:window-width="2160"
     inkscape:window-height="1256"
     inkscape:window-x="-11"
     inkscape:window-y="-11"
     inkscape:window-maximized="1"
     inkscape:current-layer="svg16" />
  <rect
     fill="none"
     height="192"
     width="192"
     id="rect2"
     x="-24"
     y="-24" />
  <g
     id="g14"
     transform="translate(-24,-24)">
    <circle
       fill="#34a853"
       cx="144.07001"
       cy="144"
       r="16"
       id="circle4" />
    <circle
       fill="#4285f4"
       cx="96.07"
       cy="104"
       r="24"
       id="circle6" />
    <path
       fill="#ea4335"
       d="M 24,135.2 C 24,153.31 38.69,168 56.8,168 H 96 V 152 L 55.9,151.9 C 47.1,151.9 40,143.71 40,134 V 116 H 24 Z"
       id="path8" />
    <path
       fill="#fbbc05"
       d="M 168,72.8 C 168,54.69 153.31,40 135.2,40 H 116 l 20,16 c 8.8,0 16,8.29 16,18 v 30 h 16 z"
       id="path10" />
    <path
       fill="#4285f4"
       d="M 112,24 H 80 L 68,40 H 56.8 C 38.69,40 24,54.69 24,72.8 V 92 H 40 V 74 c 0,-9.71 7.2,-18 16,-18 h 80 z"
       id="path12" />
  </g>
</svg>
