<?xml version="1.0" encoding="UTF-8" standalone="no"?>
<svg
   version="1.1"
   id="svg72699"
   viewBox="0 0 297 426.48716"
   height="426.48715"
   width="297"
   sodipodi:docname="Google_mic.svg"
   inkscape:version="1.2.2 (732a01da63, 2022-12-09)"
   xmlns:inkscape="http://www.inkscape.org/namespaces/inkscape"
   xmlns:sodipodi="http://sodipodi.sourceforge.net/DTD/sodipodi-0.dtd"
   xmlns="http://www.w3.org/2000/svg"
   xmlns:svg="http://www.w3.org/2000/svg"
   xmlns:rdf="http://www.w3.org/1999/02/22-rdf-syntax-ns#"
   xmlns:cc="http://creativecommons.org/ns#"
   xmlns:dc="http://purl.org/dc/elements/1.1/">
  <sodipodi:namedview
     id="namedview18"
     pagecolor="#ffffff"
     bordercolor="#000000"
     borderopacity="0.25"
     inkscape:showpageshadow="2"
     inkscape:pageopacity="0.0"
     inkscape:pagecheckerboard="0"
     inkscape:deskcolor="#d1d1d1"
     showgrid="false"
     inkscape:zoom="3.1083994"
     inkscape:cx="123.53625"
     inkscape:cy="391.35898"
     inkscape:window-width="2160"
     inkscape:window-height="1256"
     inkscape:window-x="-11"
     inkscape:window-y="-11"
     inkscape:window-maximized="1"
     inkscape:current-layer="svg72699" />
  <defs
     id="defs72701">
    <clipPath
       clipPathUnits="userSpaceOnUse"
       id="clipPath17476">
      <path
         d="m 640.547,230.558 h 11.505 v 16.521 h -11.505 z"
         id="path17478" />
    </clipPath>
  </defs>
  <metadata
     id="metadata72704">
    <rdf:RDF>
      <cc:Work
         rdf:about="">
        <dc:format>image/svg+xml</dc:format>
        <dc:type
           rdf:resource="http://purl.org/dc/dcmitype/StillImage" />
        <dc:title />
      </cc:Work>
    </rdf:RDF>
  </metadata>
  <g
     transform="translate(-326.95196,-142.88025)"
     id="layer1">
    <g
       id="g17472"
       transform="matrix(25.816883,0,0,-25.816883,-16209.975,6521.6873)">
      <g
         id="g17474"
         clip-path="url(#clipPath17476)">
        <g
           id="g17480"
           transform="translate(646.3034,236.3789)">
          <path
             d="M 0,0 C 1.364,0 2.461,1.106 2.461,2.469 L 2.469,8.231 C 2.469,9.596 1.364,10.7 0,10.7 -1.363,10.7 -2.469,9.596 -2.469,8.231 V 2.469 C -2.469,1.106 -1.363,0 0,0"
             style="fill:#4285f4;fill-opacity:1;fill-rule:nonzero;stroke:none"
             id="path17482" />
        </g>
        <g
           id="g17484"
           transform="translate(645.4803,233.1492)">
          <path
             d="m 0,0 v 0 -2.59 h 1.646 v 2.562 C 1.378,-0.066 1.107,-0.064 0.828,-0.064 0.547,-0.064 0.271,-0.039 0,0"
             style="fill:#34a853;fill-opacity:1;fill-rule:nonzero;stroke:none"
             id="path17486" />
        </g>
        <g
           id="g17488"
           transform="translate(643.3809,235.9115)">
          <path
             d="m 0,0 c -0.735,0.742 -1.191,1.652 -1.191,2.878 h -1.643 c 0,-1.646 0.644,-2.999 1.685,-4.041 l 0.012,0.011 c -0.004,0.004 -0.008,0.007 -0.012,0.011 z"
             style="fill:#fbbc05;fill-opacity:1;fill-rule:nonzero;stroke:none"
             id="path17490" />
        </g>
        <g
           id="g17492"
           transform="translate(650.4081,238.79)">
          <path
             d="m 0,0 c 0,-2.058 -1.829,-4.086 -4.102,-4.086 -1.137,0 -2.166,0.476 -2.911,1.222 L -7.027,-2.878 -8.176,-4.02 c 0.004,-0.003 0.008,-0.007 0.012,-0.01 0.857,-0.854 1.982,-1.429 3.236,-1.611 0.272,-0.039 0.547,-0.064 0.828,-0.064 0.28,0 0.55,-0.002 0.818,0.036 2.791,0.399 4.925,2.788 4.925,5.669 z"
             style="fill:#ea4335;fill-opacity:1;fill-rule:nonzero;stroke:none"
             id="path17494" />
        </g>
      </g>
    </g>
  </g>
</svg>
