<?xml version="1.0" encoding="UTF-8"?>
<svg width="1024px" height="1024px" viewBox="0 0 1024 1024" version="1.1" xmlns="http://www.w3.org/2000/svg" xmlns:xlink="http://www.w3.org/1999/xlink">
    <title>Icon-1024 Copy@2x</title>
    <g id="Icon-1024-Copy" stroke="none" stroke-width="1" fill="none" fill-rule="evenodd">
        <g id="Group" transform="translate(2.426778, 2.000000)">
            <rect id="Rectangle" fill="#1D74E8" x="0" y="0" width="1020" height="1020" rx="256"></rect>
            <path d="M314.555806,536.211222 C284.399562,453.906422 251.384967,425.96334 215.512022,452.381975 C151.715413,499.364995 212.293948,814 507.811401,814 C881.227248,814 866.657629,358.106743 763.781872,358.106743 C727.429557,358.106743 703.78355,408.79974 692.843853,510.185735 C715.031373,354.506403 700.909215,276.666737 650.477378,276.666737 C606.436466,276.666737 581.310487,354.506403 575.099441,510.185735 C582.889933,307.395245 560.460587,206 507.811401,206 C455.162215,206 434.755674,307.395245 446.591776,510.185735 C434.825125,339.953753 408.639361,254.837762 368.034484,254.837762 C311.500047,254.837762 293.673821,348.628915 314.555806,536.211222 Z" id="Path-Copy-4" stroke="#FFFFFF" stroke-width="35.2" stroke-linejoin="round"></path>
        </g>
    </g>
</svg>