<?xml version="1.0" encoding="UTF-8" standalone="no"?>
<svg
   height="18"
   viewBox="0 -960 720 720"
   width="18"
   version="1.1"
   id="svg143"
   sodipodi:docname="search_FILL0.svg"
   inkscape:version="1.2.2 (732a01da63, 2022-12-09)"
   xmlns:inkscape="http://www.inkscape.org/namespaces/inkscape"
   xmlns:sodipodi="http://sodipodi.sourceforge.net/DTD/sodipodi-0.dtd"
   xmlns="http://www.w3.org/2000/svg"
   xmlns:svg="http://www.w3.org/2000/svg">
  <defs
     id="defs147" />
  <sodipodi:namedview
     id="namedview145"
     pagecolor="#ffffff"
     bordercolor="#000000"
     borderopacity="0.25"
     inkscape:showpageshadow="2"
     inkscape:pageopacity="0.0"
     inkscape:pagecheckerboard="0"
     inkscape:deskcolor="#d1d1d1"
     showgrid="false"
     inkscape:zoom="32"
     inkscape:cx="-7.09375"
     inkscape:cy="10.890625"
     inkscape:window-width="2160"
     inkscape:window-height="1256"
     inkscape:window-x="-11"
     inkscape:window-y="-11"
     inkscape:window-maximized="1"
     inkscape:current-layer="svg143" />
  <path
     d="M 664,-240 412,-492 q -30,24 -69,38 -39,14 -83,14 -109,0 -184.5,-75.5 Q 0,-591 0,-700 0,-809 75.5,-884.5 151,-960 260,-960 q 109,0 184.5,75.5 75.5,75.5 75.5,184.5 0,44 -14,83 -14,39 -38,69 l 252,252 z M 260,-520 q 75,0 127.5,-52.5 Q 440,-625 440,-700 440,-775 387.5,-827.5 335,-880 260,-880 185,-880 132.5,-827.5 80,-775 80,-700 q 0,75 52.5,127.5 Q 185,-520 260,-520 Z"
     id="path141"
     style="stroke:#ffffff;stroke-opacity:1;fill:#ffffff;fill-opacity:1" />
  <path
     style="fill:#ffffff;stroke:#ffffff;stroke-width:0;fill-opacity:1;stroke-opacity:1;stroke-dasharray:none"
     d="m 13.449613,14.772061 -3.12551,-3.12551 -0.280695,0.183445 C 9.4973665,12.186852 8.3315365,12.691544 7.7648701,12.816381 6.8709789,13.013309 5.2483548,12.901567 4.3341518,12.580126 1.820028,11.696141 0.06000704,9.208943 0.05261325,6.5296111 0.04448159,3.5828947 2.0457207,0.98162421 4.8813559,0.25306673 5.6796951,0.04795009 7.3459055,0.04904951 8.1292282,0.2552098 10.311717,0.82961245 12.061533,2.5188629 12.699262,4.667066 c 0.503353,1.6955496 0.20112,3.7528124 -0.760691,5.1779461 l -0.310393,0.4599149 3.134285,3.135509 3.134285,3.135509 -0.660812,0.660812 -0.660813,0.660813 z M 7.2711865,10.979477 C 8.2255764,10.829706 9.0626119,10.386319 9.7485405,9.6671946 10.553819,8.822944 10.939717,7.9691553 11.007564,6.8816327 11.100069,5.3988956 10.702689,4.2836624 9.7338864,3.3071029 7.5217595,1.077264 3.731245,1.7147424 2.3811219,4.5436711 2.0996254,5.1334939 2.0446402,5.3766064 2.0045809,6.2085172 1.9303899,7.7492411 2.291991,8.7205623 3.3239247,9.752496 c 0.606746,0.606746 1.5253121,1.088871 2.3201431,1.217769 0.7770095,0.126006 0.8791823,0.126585 1.6271187,0.0092 z"
     id="path371"
     transform="matrix(40,0,0,40,0,-960)" />
</svg>
