<?xml version="1.0" encoding="UTF-8" standalone="no"?>
<svg
   data-v-7621fd12=""
   width="23"
   height="24"
   viewBox="0 0 23 24"
   fill="none"
   version="1.1"
   id="svg4"
   sodipodi:docname="settings.svg"
   inkscape:version="1.2.2 (732a01da63, 2022-12-09)"
   xmlns:inkscape="http://www.inkscape.org/namespaces/inkscape"
   xmlns:sodipodi="http://sodipodi.sourceforge.net/DTD/sodipodi-0.dtd"
   xmlns="http://www.w3.org/2000/svg"
   xmlns:svg="http://www.w3.org/2000/svg">
  <defs
     id="defs8" />
  <sodipodi:namedview
     id="namedview6"
     pagecolor="#ffffff"
     bordercolor="#000000"
     borderopacity="0.25"
     inkscape:showpageshadow="2"
     inkscape:pageopacity="0.0"
     inkscape:pagecheckerboard="0"
     inkscape:deskcolor="#d1d1d1"
     showgrid="false"
     inkscape:zoom="9.8333333"
     inkscape:cx="11.491525"
     inkscape:cy="3.9152542"
     inkscape:window-width="2160"
     inkscape:window-height="1256"
     inkscape:window-x="-11"
     inkscape:window-y="-11"
     inkscape:window-maximized="1"
     inkscape:current-layer="svg4" />
  <path
     fill-rule="evenodd"
     clip-rule="evenodd"
     d="M13.6535 0.1824C13.2057 -5.36442e-08 12.6367 0 11.5001 0C10.3634 0 9.79448 -5.36442e-08 9.3466 0.1824C8.75037 0.425053 8.27577 0.892518 8.02716 1.482C7.91337 1.7496 7.8698 2.0628 7.85164 2.5176C7.84357 2.84712 7.75085 3.16916 7.58224 3.45326C7.41364 3.73736 7.17472 3.97414 6.88809 4.1412C6.59605 4.30212 6.26776 4.38737 5.93365 4.38905C5.59953 4.39073 5.27039 4.30878 4.97672 4.1508C4.56757 3.9372 4.271 3.8196 3.97806 3.7812C3.33717 3.69778 2.68897 3.86856 2.17443 4.2564C1.78949 4.5468 1.50502 5.0316 0.937304 6C0.368372 6.9684 0.0851164 7.452 0.0209603 7.926C-0.0637742 8.5572 0.110537 9.1956 0.505158 9.7008C0.684311 9.9312 0.937304 10.1244 1.32829 10.3668C1.9057 10.7232 2.27611 11.3304 2.27611 12C2.27611 12.6696 1.9057 13.2768 1.3295 13.632C0.937304 13.8756 0.68431 14.0688 0.503947 14.2992C0.309158 14.5487 0.166182 14.8341 0.0832818 15.1387C0.000381174 15.4433 -0.0208007 15.7612 0.0209603 16.074C0.0851164 16.5468 0.368372 17.0316 0.937304 18C1.50624 18.9684 1.78949 19.452 2.17443 19.7436C2.68768 20.1312 3.3365 20.3016 3.97806 20.2188C4.271 20.1804 4.56757 20.0628 4.97672 19.8492C5.27054 19.691 5.5999 19.6089 5.93425 19.6106C6.2686 19.6123 6.59711 19.6977 6.8893 19.8588C7.4776 20.1948 7.82622 20.8128 7.85164 21.4824C7.8698 21.9384 7.91337 22.2504 8.02716 22.518C8.2741 23.106 8.74862 23.574 9.3466 23.8176C9.79448 24 10.3634 24 11.5001 24C12.6367 24 13.2057 24 13.6535 23.8176C14.2498 23.5749 14.7244 23.1075 14.973 22.518C15.0868 22.2504 15.1303 21.9384 15.1485 21.4824C15.1727 20.8128 15.5225 20.1936 16.112 19.8588C16.4041 19.6979 16.7324 19.6126 17.0665 19.6109C17.4006 19.6093 17.7297 19.6912 18.0234 19.8492C18.4326 20.0628 18.7291 20.1804 19.0221 20.2188C19.6636 20.3028 20.3125 20.1312 20.8257 19.7436C21.2106 19.4532 21.4951 18.9684 22.0628 18C22.6318 17.0316 22.915 16.548 22.9792 16.074C23.0208 15.7611 22.9994 15.4432 22.9163 15.1386C22.8332 14.8339 22.69 14.5486 22.495 14.2992C22.3158 14.0688 22.0628 13.8756 21.6718 13.6332C21.0944 13.2768 20.724 12.6696 20.724 12C20.724 11.3304 21.0944 10.7232 21.6706 10.368C22.0628 10.1244 22.3158 9.9312 22.4962 9.7008C22.691 9.45127 22.834 9.16595 22.9169 8.86132C22.9998 8.55669 23.0209 8.23879 22.9792 7.926C22.915 7.4532 22.6318 6.9684 22.0628 6C21.4939 5.0316 21.2106 4.548 20.8257 4.2564C20.3112 3.86856 19.663 3.69778 19.0221 3.7812C18.7291 3.8196 18.4326 3.9372 18.0234 4.1508C17.7296 4.309 17.4002 4.39106 17.0659 4.38938C16.7315 4.3877 16.403 4.30234 16.1108 4.1412C15.8244 3.97399 15.5858 3.73715 15.4174 3.45306C15.249 3.16897 15.1564 2.84701 15.1485 2.5176C15.1303 2.0616 15.0868 1.7496 14.973 1.482C14.8499 1.19008 14.6701 0.925059 14.4437 0.702069C14.2173 0.479079 13.9488 0.302493 13.6535 0.1824ZM11.5001 15.6C13.5216 15.6 15.1594 13.9884 15.1594 12C15.1594 10.0116 13.5204 8.4 11.5001 8.4C9.47854 8.4 7.84075 10.0116 7.84075 12C7.84075 13.9884 9.47975 15.6 11.5001 15.6Z"
     class="fill-white dark:fill-[#868A9B]"
     id="path2"
     style="fill:#ffffff;fill-opacity:1" />
</svg>
