<?xml version="1.0" encoding="UTF-8" standalone="no"?>
<svg
   width="60.000622"
   height="40.970493"
   viewBox="0 0 60.000622 40.970493"
   version="1.1"
   id="svg2457"
   sodipodi:docname="shab.svg"
   inkscape:version="1.2.2 (732a01da63, 2022-12-09)"
   xmlns:inkscape="http://www.inkscape.org/namespaces/inkscape"
   xmlns:sodipodi="http://sodipodi.sourceforge.net/DTD/sodipodi-0.dtd"
   xmlns:xlink="http://www.w3.org/1999/xlink"
   xmlns="http://www.w3.org/2000/svg"
   xmlns:svg="http://www.w3.org/2000/svg">
  <sodipodi:namedview
     id="namedview2459"
     pagecolor="#ffffff"
     bordercolor="#000000"
     borderopacity="0.25"
     inkscape:showpageshadow="2"
     inkscape:pageopacity="0.0"
     inkscape:pagecheckerboard="0"
     inkscape:deskcolor="#d1d1d1"
     showgrid="false"
     inkscape:zoom="5.7560976"
     inkscape:cx="-1.9110169"
     inkscape:cy="20.586864"
     inkscape:window-width="2160"
     inkscape:window-height="1256"
     inkscape:window-x="-11"
     inkscape:window-y="-11"
     inkscape:window-maximized="1"
     inkscape:current-layer="g2455" />
  <defs
     id="defs2425">
    <radialGradient
       id="a"
       cx="0.5"
       cy="0.5"
       r="0.5"
       gradientTransform="matrix(1,0,0,-1,0,0.997)"
       gradientUnits="objectBoundingBox">
      <stop
         offset="0.01"
         stop-color="#27aae1"
         stop-opacity="0"
         id="stop2370" />
      <stop
         offset="0.32"
         stop-color="#1e85b4"
         stop-opacity="0.22"
         id="stop2372" />
      <stop
         offset="0.65"
         stop-color="#05162d"
         stop-opacity="0.871"
         id="stop2374" />
      <stop
         offset="0.7"
         stop-color="#000013"
         id="stop2376" />
      <stop
         offset="1"
         stop-color="#000532"
         stop-opacity="0"
         id="stop2378" />
    </radialGradient>
    <linearGradient
       id="b"
       x1="-0.0020000001"
       y1="0.49900001"
       x2="1"
       y2="0.49900001"
       gradientUnits="objectBoundingBox">
      <stop
         offset="0"
         stop-color="#27aae1"
         id="stop2381" />
      <stop
         offset="0.08"
         stop-color="#2699cf"
         id="stop2383" />
      <stop
         offset="0.27"
         stop-color="#2474aa"
         id="stop2385" />
      <stop
         offset="0.45"
         stop-color="#23588d"
         id="stop2387" />
      <stop
         offset="0.64"
         stop-color="#224379"
         id="stop2389" />
      <stop
         offset="0.82"
         stop-color="#21376c"
         id="stop2391" />
      <stop
         offset="1"
         stop-color="#213368"
         id="stop2393" />
    </linearGradient>
    <linearGradient
       id="c"
       x1="115.69129"
       y1="21.991266"
       x2="144.87967"
       y2="21.991266"
       xlink:href="#b"
       gradientTransform="scale(0.79002813,1.2657777)"
       gradientUnits="userSpaceOnUse" />
    <linearGradient
       id="d"
       y1="0.49900001"
       x2="1"
       y2="0.49900001"
       gradientUnits="objectBoundingBox">
      <stop
         offset="0.01"
         stop-color="#ffcb05"
         id="stop2397" />
      <stop
         offset="0.19"
         stop-color="#fec706"
         id="stop2399" />
      <stop
         offset="0.38"
         stop-color="#fdba09"
         id="stop2401" />
      <stop
         offset="0.57"
         stop-color="#faa60f"
         id="stop2403" />
      <stop
         offset="0.76"
         stop-color="#f78916"
         id="stop2405" />
      <stop
         offset="0.96"
         stop-color="#f26420"
         id="stop2407" />
      <stop
         offset="1"
         stop-color="#f15a22"
         id="stop2409" />
    </linearGradient>
    <radialGradient
       id="e"
       cx="61.731629"
       cy="20.331906"
       r="20.331906"
       xlink:href="#a"
       gradientTransform="scale(0.99999536)"
       fx="61.731629"
       fy="20.331906"
       gradientUnits="userSpaceOnUse" />
    <linearGradient
       id="f"
       x1="64.01135"
       y1="15.950246"
       x2="95.960425"
       y2="15.950246"
       xlink:href="#d"
       gradientTransform="scale(0.77864391,1.2842841)"
       gradientUnits="userSpaceOnUse" />
    <linearGradient
       id="g"
       y1="20.250575"
       x2="131.96375"
       y2="20.250575"
       gradientUnits="userSpaceOnUse"
       gradientTransform="scale(0.9999955)"
       x1="91.299943">
      <stop
         offset="0"
         stop-color="#213368"
         id="stop2414" />
      <stop
         offset="0.15"
         stop-color="#213c71"
         id="stop2416" />
      <stop
         offset="0.39"
         stop-color="#235489"
         id="stop2418" />
      <stop
         offset="0.69"
         stop-color="#257bb1"
         id="stop2420" />
      <stop
         offset="1"
         stop-color="#27aae1"
         id="stop2422" />
    </linearGradient>
    <radialGradient
       inkscape:collect="always"
       xlink:href="#a"
       id="radialGradient2686"
       gradientUnits="userSpaceOnUse"
       gradientTransform="scale(0.99999473,1.0000053)"
       cx="20.231418"
       cy="20.331887"
       r="20.331887"
       fx="20.231418"
       fy="20.331887" />
    <linearGradient
       inkscape:collect="always"
       xlink:href="#b"
       id="linearGradient2688"
       gradientUnits="userSpaceOnUse"
       x1="10.963607"
       y1="15.89739"
       x2="42.808659"
       y2="15.89739"
       gradientTransform="scale(0.77617474,1.2883697)" />
    <linearGradient
       inkscape:collect="always"
       xlink:href="#d"
       id="linearGradient2690"
       gradientUnits="userSpaceOnUse"
       y1="19.862598"
       x2="138.11568"
       y2="19.862598"
       gradientTransform="scale(0.89225982,1.1207498)"
       x1="102.42708" />
  </defs>
  <g
     transform="translate(-5173.9995,6145)"
     id="g2455">
    <g
       transform="translate(5174.1,-6145)"
       id="g2453">
      <g
         transform="translate(-0.1)"
         id="g2451">
        <path
           d="M 40.563,20.479 A 20.332,20.332 0 1 1 20.21,0 h 0.021 a 20.418,20.418 0 0 1 20.332,20.479 z"
           transform="translate(0.1)"
           fill="url(#a)"
           id="path2437"
           style="fill:url(#radialGradient2686)" />
        <path
           d="M 33.222,40.527 A 20.286,20.286 0 0 1 9.04,24.912 20.472,20.472 0 0 1 24.527,0.53 a 19.931,19.931 0 0 1 8.7,0 20.51,20.51 0 0 0 0,40 z"
           transform="translate(-6.734,-0.039)"
           fill="url(#b)"
           id="path2439"
           style="fill:url(#linearGradient2688)" />
        <path
           d="M 114.459,27.873 A 20.523,20.523 0 0 1 102.929,46.346 20.574,20.574 0 0 1 93.408,19 a 20.363,20.363 0 0 1 9.52,-9.6 20.523,20.523 0 0 1 11.531,18.473 z"
           transform="translate(-72.04,-7.395)"
           fill="url(#c)"
           id="path2441"
           style="fill:url(#c)" />
        <path
           d="M 123.235,22.288 A 20.475,20.475 0 0 1 107.3,42.3 20.535,20.535 0 0 1 102.921,3.838 a 19.958,19.958 0 0 1 4.4,-1.536 20.437,20.437 0 0 1 15.914,19.986 z"
           transform="translate(-72.036,-1.809)"
           fill="url(#d)"
           id="path2443"
           style="fill:url(#linearGradient2690)" />
        <path
           d="M 82.063,20.479 A 20.332,20.332 0 1 1 61.731,0 h 0.042 a 20.4,20.4 0 0 1 20.29,20.479 z"
           transform="translate(-32.62)"
           fill="url(#e)"
           id="path2445"
           style="fill:url(#e)" />
        <path
           d="M 58.788,20.508 A 20.433,20.433 0 0 1 74.719,0.52 a 20.469298,20.469298 0 0 0 -8.716,40 19.931,19.931 0 0 0 8.7,0 20.461,20.461 0 0 1 -15.915,-20.012 z"
           transform="translate(-39.43,-0.03)"
           fill="url(#f)"
           id="path2447"
           style="fill:url(#f)" />
        <path
           d="M 131.963,20.479 A 20.332,20.332 0 1 1 111.61,0 h 0.042 a 20.4,20.4 0 0 1 20.311,20.479 z"
           transform="translate(-71.963)"
           fill="url(#g)"
           id="path2449"
           style="fill:url(#g)" />
      </g>
    </g>
  </g>
</svg>
