<?xml version="1.0" encoding="UTF-8" standalone="no"?>
<svg
   data-v-10b8487c=""
   width="13.702134"
   height="13.229829"
   viewBox="0 0 13.702134 13.229829"
   fill="none"
   version="1.1"
   id="svg4"
   sodipodi:docname="visible.svg"
   inkscape:version="1.2.2 (732a01da63, 2022-12-09)"
   xmlns:inkscape="http://www.inkscape.org/namespaces/inkscape"
   xmlns:sodipodi="http://sodipodi.sourceforge.net/DTD/sodipodi-0.dtd"
   xmlns="http://www.w3.org/2000/svg"
   xmlns:svg="http://www.w3.org/2000/svg">
  <defs
     id="defs8" />
  <sodipodi:namedview
     id="namedview6"
     pagecolor="#ffffff"
     bordercolor="#000000"
     borderopacity="0.25"
     inkscape:showpageshadow="2"
     inkscape:pageopacity="0.0"
     inkscape:pagecheckerboard="0"
     inkscape:deskcolor="#d1d1d1"
     showgrid="false"
     inkscape:zoom="16.857143"
     inkscape:cx="6.5254237"
     inkscape:cy="6.4957627"
     inkscape:window-width="2160"
     inkscape:window-height="1256"
     inkscape:window-x="-11"
     inkscape:window-y="-11"
     inkscape:window-maximized="1"
     inkscape:current-layer="svg4" />
  <path
     d="m 4.138504,6.747139 -2.63111,-2.63112 c -1.03582,1.12918 -1.42835,2.2604 -1.43516,2.28357 L 0,6.614929 0.071554,6.830279 c 0.01499,0.04565 1.57826,4.55485 6.77985,4.55485 0.63307,0 1.20959,-0.0695 1.73908,-0.186 l -1.87129,-1.8713 c -0.67377,-0.03303 -1.31116,-0.31553 -1.78816,-0.79253 -0.477,-0.477 -0.7595,-1.11439 -0.79253,-1.78816 z m 2.7129,-4.90243 c -1.26411,0 -2.29993,0.27531 -3.16334,0.6801 L 1.163254,0 l -0.96359,0.963589 12.26627,12.26624 0.9636,-0.9635 -2.2475,-2.2475 c 1.7977,-1.33089 2.439,-3.15993 2.4485,-3.18855 l 0.0716,-0.21535 -0.0716,-0.21534 c -0.015,-0.04565 -1.5775,-4.55488 -6.77913,-4.55488 z m 1.29886,5.1423 c 0.12743,-0.46135 0.01908,-0.98062 -0.33528,-1.33566 -0.35436,-0.35504 -0.87431,-0.46271 -1.33566,-0.33528 l -1.02764,-1.02764 c 0.42112,-0.25897 0.90535,-0.39712 1.39972,-0.39934 1.5033,0 2.72583,1.22254 2.72583,2.72584 -0.002,0.49428 -0.1404,0.97841 -0.4,1.39904 z"
     class="fill-[#3D518F] dark:fill-[#D5D8E3]"
     id="path2"
     style="fill:#3d518f;fill-opacity:1" />
</svg>
